<?xml version="1.0" encoding="utf-8"?>
<!-- Generator: Adobe Illustrator 19.1.0, SVG Export Plug-In . SVG Version: 6.00 Build 0)  -->
<svg version="1.1" id="Layer_1" xmlns="http://www.w3.org/2000/svg" xmlns:xlink="http://www.w3.org/1999/xlink" x="0px" y="0px"
	 viewBox="0 0 120 120" style="enable-background:new 0 0 120 120;" xml:space="preserve">
<style type="text/css">
	.st0{fill:#E6E7E8;}
	.st1{fill:#58595B;}
</style>
<circle class="st0" cx="60" cy="60" r="60"/>
<path id="iconBg_1_" class="st1" d="M95.8,87.4L71,62.5c2.3-3.8,3.7-8.2,3.7-13c0-13.9-11.3-25.3-25.3-25.3S24.2,35.5,24.2,49.5
	s11.3,25.3,25.3,25.3c4.8,0,9.3-1.4,13.2-3.8l24.8,24.8C87.4,95.8,95.8,87.4,95.8,87.4z M29.8,49.5c0-10.8,8.8-19.6,19.6-19.6
	s19.6,8.8,19.6,19.6s-8.8,19.6-19.6,19.6S29.8,60.3,29.8,49.5z"/>
</svg>
